#!OML:ASF X:\für Bonn\!DataBase\2005_08_12_Daniel\c3d\Daniel.ASF
:FULLY-SPECIFIED
:DEGREES
198
root -0.692288 17.5009 17.5034 -737.71 81.1678 -11.2783
lowerback 14.4014 -1.62855 9.24598
upperback 2.87518 -0.804353 -2.72814
thorax -5.17853 -0.503165 -8.05551
lowerneck 6.91916 12.9169 7.82204
upperneck 10.1596 20.4416 -19.0739
head 4.69849 10.2308 -6.35561
rclavicle 1.3418e-014 -7.55382e-015
rhumerus -41.7858 15.9154 -102.064
rradius 77.6772
rwrist -32.0253
rhand -13.5706 20.2065
rfingers 7.12502
rthumb 12.5432 -9.39696
lclavicle 1.3418e-014 -7.55382e-015
lhumerus -31.5811 27.4263 78.1565
lradius 27.6884
lwrist -22.8796
lhand -9.11071 -7.40626
lfingers 7.12502
lthumb 16.8399 21.8835
rfemur 12.7419 15.8039 25.5069
rtibia 12.1595
rfoot -27.648 -27.9797
rtoes -11.6464
lfemur -22.2101 -2.91857 -15.2657
ltibia 36.9619
lfoot -17.993 7.49291
ltoes -4.07507
199
root -0.699657 17.4905 17.4777 -739.54 82.3392 -13.0417
lowerback 14.385 -1.61976 9.17973
upperback 2.88347 -0.801789 -2.71932
thorax -5.15949 -0.498531 -8.00753
lowerneck 6.87719 12.8598 7.83172
upperneck 10.4576 20.4335 -18.9896
head 4.78681 10.2197 -6.32338
rclavicle -2.48978e-014 -7.15625e-015
rhumerus -42.0305 16.0274 -101.925
rradius 76.3228
rwrist -32.7093
rhand -13.4007 19.8055
rfingers 7.12502
rthumb 12.7069 -9.78785
lclavicle -2.48978e-014 -7.15625e-015
lhumerus -31.7776 28.2041 77.4876
lradius 27.0982
lwrist -23.859
lhand -9.15289 -7.37634
lfingers 7.12502
lthumb 16.7993 21.9169
rfemur 12.9707 15.7385 25.6238
rtibia 12.2081
rfoot -28.474 -28.8204
rtoes -11.3266
lfemur -22.3235 -2.24435 -15.2063
ltibia 37.5175
lfoot -17.7532 7.52615
ltoes -3.94553
200
root -0.707451 17.4786 17.4511 -741.885 83.4634 -15.2765
lowerback 14.4427 -1.59982 9.07751
upperback 2.89017 -0.781856 -2.70104
thorax -5.17886 -0.48651 -7.93211
lowerneck 6.86238 12.7939 7.79843
upperneck 10.7381 20.4057 -18.8872
head 4.85637 10.2008 -6.28417
rclavicle -1.52567e-014 -1.94809e-014
rhumerus -42.3075 16.1382 -101.793
rradius 75.0248
rwrist -33.418
rhand -13.197 19.459
rfingers 7.12502
rthumb 12.9033 -10.1221
lclavicle -1.52567e-014 -1.94809e-014
lhumerus -32.0085 29.012 76.776
lradius 26.5109
lwrist -24.9165
lhand -9.27284 -7.24176
lfingers 7.12502
lthumb 16.6838 22.0613
rfemur 13.2194 15.6885 25.7449
rtibia 12.3084
rfoot -29.3694 -29.6117
rtoes -10.9115
lfemur -22.3881 -1.61061 -15.1203
ltibia 38.0877
lfoot -17.5873 7.45049
ltoes -4.18083
201
root -0.712878 17.4653 17.4234 -745.204 84.5596 -18.4823
lowerback 14.5069 -1.57121 8.98815
upperback 2.89154 -0.748898 -2.69896
thorax -5.20521 -0.468988 -7.88472
lowerneck 6.81507 12.7191 7.78024
upperneck 11.0503 20.3631 -18.7362
head 4.93547 10.1728 -6.2302
rclavicle -5.51627e-015 -3.18055e-015
rhumerus -42.5927 16.2188 -101.705
rradius 73.7849
rwrist -34.1955
rhand -12.9839 19.0663
rfingers 7.12502
rthumb 13.1087 -10.5017
lclavicle -5.51627e-015 -3.18055e-015
lhumerus -32.2618 29.869 75.9644
lradius 25.8783
lwrist -25.9916
lhand -9.47341 -7.14719
lfingers 7.12502
lthumb 16.4907 22.172
rfemur 13.4358 15.5771 25.8491
rtibia 12.4611
rfoot -30.2594 -30.3341
rtoes -10.6231
lfemur -22.4481 -1.0004 -15.0011
ltibia 38.6634
lfoot -17.4597 7.26152
ltoes -4.5775
202
root -0.717323 17.4505 17.3953 -750.307 85.6273 -23.4763
lowerback 14.5712 -1.54555 8.89037
upperback 2.88856 -0.721025 -2.69217
thorax -5.23735 -0.454326 -7.82634
lowerneck 6.79398 12.6398 7.73917
upperneck 11.3117 20.3002 -18.5761
head 4.98873 10.1381 -6.1752
rclavicle 3.13086e-015 -1.78906e-014
rhumerus -42.8611 16.2594 -101.635
rradius 72.5718
rwrist -34.9518
rhand -12.7224 18.599
rfingers 7.12502
rthumb 13.3608 -10.9526
lclavicle 3.13086e-015 -1.78906e-014
lhumerus -32.5617 30.7789 75.0777
lradius 25.2601
lwrist -27.095
lhand -9.70387 -7.02183
lfingers 7.12502
lthumb 16.2688 22.3156
rfemur 13.6343 15.4809 25.9788
rtibia 12.6618
rfoot -31.2082 -31.0308
rtoes -10.2521
lfemur -22.5184 -0.43158 -14.8435
ltibia 39.2436
lfoot -17.3574 7.00652
ltoes -5.17078
203
root -0.720445 17.4355 17.3662 -758.316 86.6295 -31.3956
lowerback 14.6209 -1.52089 8.76022
upperback 2.88242 -0.700927 -2.68307
thorax -5.26621 -0.443013 -7.745
lowerneck 6.75941 12.5649 7.67489
upperneck 11.5365 20.2328 -18.4166
head 5.0304 10.1009 -6.11692
rclavicle 2.18663e-015 9.14409e-015
rhumerus -43.1309 16.3462 -101.578
rradius 71.4004
rwrist -35.6911
rhand -12.4768 18.2393
rfingers 7.12502
rthumb 13.5974 -11.2966
lclavicle 2.18663e-015 9.14409e-015
lhumerus -32.9031 31.8642 74.0695
lradius 24.614
lwrist -28.2711
lhand -10.0433 -6.91029
lfingers 7.12502
lthumb 15.9419 22.4536
rfemur 13.7848 15.3512 26.0799
rtibia 12.9003
rfoot -32.1913 -31.6661
rtoes -9.86085
lfemur -22.6054 0.0540085 -14.647
ltibia 39.8228
lfoot -17.3103 6.68867
ltoes -5.83568
204
root -0.721781 17.4202 17.3357 -772.702 87.5088 -45.717
lowerback 14.659 -1.49931 8.63348
upperback 2.85568 -0.686095 -2.67542
thorax -5.312 -0.436401 -7.6663
lowerneck 6.74413 12.4993 7.54133
upperneck 11.7363 20.1523 -18.1644
head 5.04329 10.0587 -6.02334
rclavicle 4.52235e-015 -2.78299e-015
rhumerus -43.4075 16.425 -101.489
rradius 70.2877
rwrist -36.4067
rhand -12.2242 17.8243
rfingers 7.12502
rthumb 13.8409 -11.6951
lclavicle 4.52235e-015 -2.78299e-015
lhumerus -33.2985 33.047 72.9553
lradius 23.9586
lwrist -29.43
lhand -10.3777 -6.83191
lfingers 7.12502
lthumb 15.6199 22.5575
rfemur 13.8933 15.1967 26.174
rtibia 13.1715
rfoot -33.1688 -32.2532
rtoes -9.51353
lfemur -22.7128 0.409297 -14.3942
ltibia 40.3981
lfoot -17.279 6.34914
ltoes -6.13378
205
root -0.721875 17.4045 17.3032 -798.659 88.0929 -71.6183
lowerback 14.6824 -1.48709 8.49061
upperback 2.83884 -0.687908 -2.67412
thorax -5.34224 -0.436426 -7.58177
lowerneck 6.70739 12.4397 7.40233
upperneck 11.9055 20.0711 -17.9151
head 5.05051 10.0153 -5.92855
rclavicle -3.13086e-015 -1.19271e-015
rhumerus -43.6472 16.5572 -101.393
rradius 69.2209
rwrist -37.0692
rhand -12.0487 17.4742
rfingers 7.12502
rthumb 14.0101 -12.0336
lclavicle -3.13086e-015 -1.19271e-015
lhumerus -33.7266 34.2488 71.7814
lradius 23.3572
lwrist -30.4459
lhand -10.6946 -6.71412
lfingers 7.12502
lthumb 15.3146 22.6988
rfemur 13.975 14.9985 26.2456
rtibia 13.4735
rfoot -34.2004 -32.7739
rtoes -9.1775
lfemur -22.8373 0.743293 -14.1355
ltibia 40.9703
lfoot -17.2537 6.0108
ltoes -6.28961
206
root -0.720627 17.3876 17.2693 -832.845 88.0799 -105.747
lowerback 14.7182 -1.48558 8.34225
upperback 2.80691 -0.70375 -2.66749
thorax -5.39814 -0.445239 -7.48569
lowerneck 6.71941 12.3852 7.23689
upperneck 12.0415 19.99 -17.6632
head 5.03709 9.97544 -5.83384
rclavicle -9.44227e-016 1.94809e-014
rhumerus -43.8833 16.6562 -101.298
rradius 68.1238
rwrist -37.5731
rhand -11.8205 17.2582
rfingers 7.12502
rthumb 14.23 -12.2343
lclavicle -9.44227e-016 1.94809e-014
lhumerus -34.2581 35.6101 70.4523
lradius 22.7504
lwrist -31.4704
lhand -10.9872 -6.62998
lfingers 7.12502
lthumb 15.0328 22.8043
rfemur 14.0462 14.7631 26.3104
rtibia 13.7882
rfoot -35.1799 -33.2515
rtoes -8.804
lfemur -22.9658 1.09597 -13.8751
ltibia 41.5424
lfoot -17.2163 5.73515
ltoes -6.38983
207
root -0.71819 17.3708 17.2331 -858.271 87.4915 -131.117
lowerback 14.7465 -1.48741 8.20939
upperback 2.79489 -0.723252 -2.68188
thorax -5.4294 -0.453877 -7.42081
lowerneck 6.61358 12.329 7.09223
upperneck 12.235 19.9056 -17.3683
head 5.05865 9.9259 -5.71828
rclavicle 5.96354e-016 -1.59028e-014
rhumerus -44.0484 16.6556 -101.198
rradius 67.0536
rwrist -37.8736
rhand -11.631 17.0254
rfingers 7.12502
rthumb 14.4126 -12.4542
lclavicle 5.96354e-016 -1.59028e-014
lhumerus -34.7836 37.0009 69.0601
lradius 22.1546
lwrist -32.4261
lhand -11.3035 -6.54294
lfingers 7.12502
lthumb 14.7281 22.9139
rfemur 14.1033 14.4446 26.3394
rtibia 14.1114
rfoot -36.1076 -33.6609
rtoes -8.53521
lfemur -23.1005 1.44186 -13.6303
ltibia 42.1159
lfoot -17.1801 5.54087
ltoes -6.33208
